<svg xmlns="http://www.w3.org/2000/svg" width="47" height="47" viewBox="0 0 47 47">
  <g id="info-standard-line" transform="translate(-2 -2)">
    <path id="Path_16" data-name="Path 16" d="M20.683,11.106A2.056,2.056,0,1,1,18.626,9.05,2.056,2.056,0,0,1,20.683,11.106Z" transform="translate(6.83 3.305)" fill="#fff"/>
    <path id="Path_17" data-name="Path 17" d="M24.281,30.109H21.344V14.1H16.938a1.469,1.469,0,0,0,0,2.938h1.469V30.109H15.469a1.469,1.469,0,0,0,0,2.938h8.813a1.469,1.469,0,0,0,0-2.937Z" transform="translate(5.625 5.672)" fill="#fff"/>
    <path id="Path_18" data-name="Path 18" d="M25.5,49A23.5,23.5,0,1,1,49,25.5,23.5,23.5,0,0,1,25.5,49Zm0-44.062A20.563,20.563,0,1,0,46.063,25.5,20.562,20.562,0,0,0,25.5,4.938Z" fill="#fff"/>
  </g>
</svg>
