<svg xmlns="http://www.w3.org/2000/svg" width="20.18" height="16.795" viewBox="0 0 20.18 16.795">
  <g id="Group_597" data-name="Group 597" transform="translate(13882 14470)">
    <path id="Path_204" data-name="Path 204" d="M12.482,1.111H-.525c-.539,0-.975-.585-.975-1.306S-1.063-1.5-.525-1.5H12.482c.539,0,.975.585.975,1.306S13.02,1.111,12.482,1.111Z" transform="translate(-13875.277 -14468.5)" fill="#fff"/>
    <path id="Path_205" data-name="Path 205" d="M12.482,1.111H-.525c-.539,0-.975-.585-.975-1.306S-1.063-1.5-.525-1.5H12.482c.539,0,.975.585.975,1.306S13.02,1.111,12.482,1.111Z" transform="translate(-13875.277 -14461.282)" fill="#fff"/>
    <path id="Path_206" data-name="Path 206" d="M12.482,1.111H-.525c-.539,0-.975-.585-.975-1.306S-1.063-1.5-.525-1.5H12.482c.539,0,.975.585.975,1.306S13.02,1.111,12.482,1.111Z" transform="translate(-13875.277 -14454.316)" fill="#fff"/>
    <path id="Path_207" data-name="Path 207" d="M1.306,0A1.306,1.306,0,1,1,0,1.306,1.306,1.306,0,0,1,1.306,0Z" transform="translate(-13882 -14470)" fill="#fff"/>
    <path id="Path_208" data-name="Path 208" d="M1.306,0A1.306,1.306,0,1,1,0,1.306,1.306,1.306,0,0,1,1.306,0Z" transform="translate(-13882 -14462.782)" fill="#fff"/>
    <path id="Path_209" data-name="Path 209" d="M1.306,0A1.306,1.306,0,1,1,0,1.306,1.306,1.306,0,0,1,1.306,0Z" transform="translate(-13882 -14455.816)" fill="#fff"/>
  </g>
</svg>
