<svg id="Group_40" data-name="Group 40" xmlns="http://www.w3.org/2000/svg" width="113.613" height="46.902" viewBox="0 0 113.613 46.902">
  <path id="path" d="M0,0V6.065l2.034-.008v15.37H10.11V0Z" transform="translate(18.605 25.089)" fill="#fff"/>
  <path id="path-2" data-name="path" d="M14.344,0l-3.13,10.723L8.051,0H0L6.841,21.427h8.6L22.361,0Z" transform="translate(31.06 25.089)" fill="#fff"/>
  <path id="path-3" data-name="path" d="M0,0V6.065l2.038-.008v15.37h8.071V0Z" transform="translate(55.236 25.089)" fill="#fff"/>
  <path id="path-4" data-name="path" d="M12.878,29.9a7.9,7.9,0,0,1-5.727-2.069l-.008,1.683H0V0H8.071V9.243A8.471,8.471,0,0,1,13.193,7.71a8.572,8.572,0,0,1,7.135,3.414,12.966,12.966,0,0,1,2.282,7.758C22.61,24.209,20.053,29.9,12.878,29.9Zm-1.44-15.648C8.526,14.254,8.3,17.8,8.3,18.881c0,3.3,1.622,4.475,3.139,4.475,2.287,0,3.1-2.41,3.1-4.475C14.538,16.644,13.723,14.254,11.438,14.254Z" transform="translate(68.6 17)" fill="#fff"/>
  <path id="path-5" data-name="path" d="M11.714,0V13.039c0,.833-.249,2.225-1.914,2.225-1.147,0-1.728-.6-1.728-1.8V0H0V13.234c0,7.086,4.085,8.575,7.509,8.575a7.029,7.029,0,0,0,5.389-2.3v1.92h6.89V0Z" transform="translate(93.762 25.089)" fill="#fff"/>
  <path id="path-6" data-name="path" d="M7.321,4.074,0,0V8.146Z" transform="translate(21.489 16.052)" fill="#d7df23"/>
  <rect id="path-7" data-name="path" width="2.693" height="6.765" transform="translate(57.928 17.005)" fill="#ef4130"/>
  <rect id="path-8" data-name="path" width="2.692" height="6.765" transform="translate(62.646 17.005)" fill="#ef4130"/>
  <path id="path-9" data-name="path" d="M15.507,20.408l-1.176.351a10.243,10.243,0,0,1-2.633.525c-.565,0-1.074-.106-1.074-1.383V11.885h4.882V5.745H10.624V0H2.659l.016,5.745H0v6.14H2.555v8.169c0,4.89,2.555,7.47,7.391,7.47a17.075,17.075,0,0,0,5.561-.928V20.408Z" transform="translate(0.056 19.343)" fill="#fff"/>
  <path id="Exclusion_2" data-name="Exclusion 2" d="M5.328,9.9H5.31A5.518,5.518,0,0,1,1.447,8.54,4.715,4.715,0,0,1,0,5,5.04,5.04,0,0,1,1.361,1.407,4.865,4.865,0,0,1,4.926,0h.017C7.681,0,9.387,1.808,9.4,4.715a7.539,7.539,0,0,1-.047.968L2.6,5.709a2.5,2.5,0,0,0,2.76,2.167h.023a6.589,6.589,0,0,0,2.728-.614l.843,1.8A8.381,8.381,0,0,1,5.328,9.9ZM5.084,1.994A2.333,2.333,0,0,0,2.561,4.061l4.454-.015A1.91,1.91,0,0,0,5.084,1.994Z" transform="translate(50.695 3.516)" fill="#fff" stroke="rgba(0,0,0,0)" stroke-width="1"/>
  <path id="Path-10" data-name="Path" d="M2.468,0l.038,10.646c0,.53.316.771.866.767a4.418,4.418,0,0,0,.587-.077l.007,1.887a9.561,9.561,0,0,1-1.685.192c-1.154,0-2.236-.432-2.243-2.6L0,1.39Z" transform="translate(61.947)" fill="#fff"/>
  <path id="Exclusion_1" data-name="Exclusion 1" d="M7.3,9.895H5.29A5.5,5.5,0,0,1,1.442,8.535,4.722,4.722,0,0,1,0,5,4.753,4.753,0,0,1,4.935,0h.017C7.682,0,9.388,1.808,9.4,4.715a8.7,8.7,0,0,1-.055.968l-6.739.025A2.48,2.48,0,0,0,5.354,7.876h.022a6.581,6.581,0,0,0,2.735-.614l.843,1.8L7.3,9.892ZM5.084,2A2.336,2.336,0,0,0,2.562,4.061l4.453-.023A1.9,1.9,0,0,0,5.1,2Z" transform="translate(66.999 3.459)" fill="#fff" stroke="rgba(0,0,0,0)" stroke-width="1"/>
  <path id="Path-11" data-name="Path" d="M2.458,0l.033,7.907L5.653,3.7l2.953-.009L4.845,8.174l3.63,5.045-2.765.008L3.424,9.92,2.51,10.949l.009,2.288-2.474.009L0,1.4Z" transform="translate(28.279 0.083)" fill="#fff"/>
  <path id="Path-12" data-name="Path" d="M2.456,0l.032,7.907L5.655,3.7,8.6,3.686,4.845,8.174l3.626,5.041-2.77.009L3.421,9.918l-.915,1.029.009,2.291-2.471.009L0,1.4Z" transform="translate(78.205 0.095)" fill="#fff"/>
  <path id="Path-13" data-name="Path" d="M1.867.217,2.275,1.48A3.072,3.072,0,0,1,4.906.02a2.86,2.86,0,0,1,2.632,1.7A3.273,3.273,0,0,1,10.6,0c1.963-.007,3.414,1.2,3.424,3.965L14.05,9.7l-2.475.009-.023-5.9C11.55,2.84,11.164,2,10.01,2c-1.225,0-1.76.978-1.755,2.223l.021,5.5-2.469.009L5.784,3.7A1.493,1.493,0,0,0,4.256,2.022c-1.228,0-1.774.978-1.77,2.2l.021,5.516L.035,9.751,0,.223Z" transform="translate(99.563 3.592)" fill="#fff"/>
  <path id="Subtraction_2" data-name="Subtraction 2" d="M5.42,10.81H5.391A5.406,5.406,0,0,1,1.569,1.6,5.346,5.346,0,0,1,5.381,0h.014a5.418,5.418,0,0,1,5.414,5.39A5.4,5.4,0,0,1,5.42,10.81ZM5.4,2.338A3.071,3.071,0,0,0,5.4,8.48H5.42a3.071,3.071,0,0,0-.009-6.142Z" transform="translate(87.004 2.909)" fill="#fff" stroke="rgba(0,0,0,0)" stroke-width="1"/>
  <path id="Path-14" data-name="Path" d="M9.024,0l.009,2.143L5.8,2.156l.04,10.68-2.566.011L3.239,2.165.007,2.177,0,.033Z" transform="translate(42.75 0.419)" fill="#fff"/>
  <path id="Path-15" data-name="Path" d="M2.391.1l-.006,1.4C2.969.3,3.869.007,5.553,0l.008,2.417-.311,0A2.519,2.519,0,0,0,2.5,5.292L2.51,9.635.036,9.642,0,.114Z" transform="translate(20.821 3.717)" fill="#fff"/>
  <path id="Path-16" data-name="Path" d="M9.029,0l.007,2.145L5.8,2.155l.038,10.684-2.564.009L3.239,2.165.007,2.177,0,.035Z" transform="translate(0 0.574)" fill="#fff"/>
  <path id="Path-17" data-name="Path" d="M6.428,8.291l-.371-1.15A2.733,2.733,0,0,1,3.525,8.465a3.3,3.3,0,0,1-3.508-3.6L0,.029,2.483.02,2.5,4.866c0,1.235.675,1.783,1.543,1.781A1.881,1.881,0,0,0,5.866,4.538L5.85.009,8.289,0l.028,8.283Z" transform="translate(9.794 5.074)" fill="#fff"/>
  <path id="Path-18" data-name="Path" d="M0,.009,2.473,0l.008,1.94L.007,1.949Z" transform="translate(10.679 1.688)" fill="#fff"/>
  <path id="Path-19" data-name="Path" d="M0,.009,2.473,0l.007,1.941L.007,1.951Z" transform="translate(14.702 1.673)" fill="#fff"/>
</svg>
