<svg width="24" height="24" viewBox="0 0 24 24" fill="none" xmlns="http://www.w3.org/2000/svg">
<path d="M12 8C13.25 8 14.3127 8.43733 15.188 9.312C16.0633 10.1867 16.5007 11.2493 16.5 12.5C16.4993 13.7507 16.062 14.813 15.188 15.687C14.314 16.561 13.2513 16.9987 12 17C10.7487 17.0013 9.68633 16.5637 8.813 15.687C7.93967 14.8103 7.502 13.748 7.5 12.5C7.498 11.252 7.93567 10.1893 8.813 9.312C9.69033 8.43467 10.7527 7.99733 12 8ZM12 9.8C11.25 9.8 10.6127 10.0627 10.088 10.588C9.56333 11.1133 9.30067 11.7507 9.3 12.5C9.29933 13.2493 9.562 13.8867 10.088 14.412C10.614 14.9373 11.2513 15.2 12 15.2C12.7487 15.2 13.3863 14.9373 13.913 14.412C14.4397 13.8867 14.702 13.2493 14.7 12.5C14.698 11.7507 14.4357 11.113 13.913 10.587C13.3903 10.061 12.7527 9.79867 12 9.8ZM12 5C9.56667 5 7.35 5.679 5.35 7.037C3.35 8.395 1.9 10.216 1 12.5C1.9 14.7833 3.35 16.604 5.35 17.962C7.35 19.32 9.56667 19.9993 12 20C14.4333 20.0007 16.65 19.3213 18.65 17.962C20.65 16.6027 22.1 14.782 23 12.5C22.1 10.2167 20.65 8.39567 18.65 7.037C16.65 5.67833 14.4333 4.99933 12 5Z" fill="white"/>
</svg>
