<svg width="24" height="24" viewBox="0 0 24 24" fill="none" xmlns="http://www.w3.org/2000/svg">
<path d="M19.8 1.40001L15.6 5.55001C15.0167 5.36668 14.4293 5.22901 13.838 5.13701C13.2467 5.04501 12.634 4.99934 12 5.00001C9.48333 5.00001 7.24167 5.69568 5.275 7.08701C3.30833 8.47835 1.88333 10.2827 1 12.5C1.35 13.3833 1.79167 14.2043 2.325 14.963C2.85833 15.7217 3.46667 16.4007 4.15 17L1.4 19.8L2.8 21.2L21.2 2.80001L19.8 1.40001ZM12 8.00001C12.1833 8.00001 12.3543 8.00835 12.513 8.02501C12.6717 8.04168 12.8423 8.07501 13.025 8.12501L7.625 13.525C7.575 13.3417 7.54167 13.1707 7.525 13.012C7.50833 12.8533 7.5 12.6827 7.5 12.5C7.5 11.25 7.93767 10.1873 8.813 9.31201C9.68833 8.43668 10.7507 7.99935 12 8.00001ZM19.3 7.55001L16.125 10.7C16.2417 10.9833 16.3333 11.2707 16.4 11.562C16.4667 11.8533 16.5 12.166 16.5 12.5C16.5 13.75 16.0627 14.8123 15.188 15.687C14.3133 16.5617 13.2507 16.9993 12 17C11.6667 17 11.3543 16.9667 11.063 16.9C10.7717 16.8333 10.484 16.7333 10.2 16.6L7.65 19.15C8.33333 19.4333 9.03333 19.6457 9.75 19.787C10.4667 19.9283 11.2167 19.9993 12 20C14.5167 20 16.7583 19.304 18.725 17.912C20.6917 16.52 22.1167 14.716 23 12.5C22.6167 11.5167 22.1123 10.604 21.487 9.76201C20.8617 8.92001 20.1327 8.18268 19.3 7.55001ZM14.675 12.15L11.675 15.15C12.1417 15.2333 12.571 15.1957 12.963 15.037C13.355 14.8783 13.6923 14.6493 13.975 14.35C14.2577 14.0507 14.462 13.7047 14.588 13.312C14.714 12.9193 14.743 12.532 14.675 12.15Z" fill="white"/>
</svg>
